<?xml version="1.0" encoding="UTF-8" standalone="no" ?>
<!DOCTYPE svg PUBLIC "-//W3C//DTD SVG 1.1//EN" "http://www.w3.org/Graphics/SVG/1.1/DTD/svg11.dtd">
<svg xmlns="http://www.w3.org/2000/svg" xmlns:xlink="http://www.w3.org/1999/xlink" version="1.1" width="1080" height="1080" viewBox="0 0 1080 1080" xml:space="preserve">
<desc>Created with Fabric.js 5.2.4</desc>
<defs>
</defs>
<g transform="matrix(1 0 0 1 540 540)" id="bfd5bdd6-754e-4ca6-9720-e8adf83473bf"  >
<rect style="stroke: none; stroke-width: 1; stroke-dasharray: none; stroke-linecap: butt; stroke-dashoffset: 0; stroke-linejoin: miter; stroke-miterlimit: 4; fill: rgb(255,255,255); fill-rule: nonzero; opacity: 1; visibility: hidden;" vector-effect="non-scaling-stroke"  x="-540" y="-540" rx="0" ry="0" width="1080" height="1080" />
</g>
<g transform="matrix(1 0 0 1 540 540)" id="39bd3698-66f7-4467-b9f5-f8193e4a59ba"  >
</g>
<g transform="matrix(10.91 0 0 10.91 540 540)"  >
<g style=""   >
		<g transform="matrix(1 0 0 1 -8.9 8.15)"  >
<path style="stroke: none; stroke-width: 1; stroke-dasharray: none; stroke-linecap: butt; stroke-dashoffset: 0; stroke-linejoin: miter; stroke-miterlimit: 4; fill: rgb(0,0,0); fill-rule: nonzero; opacity: 1;" vector-effect="non-scaling-stroke"  transform=" translate(-40.6, -37.15)" d="M 11.9 49.6 C 9.8 49.6 7.7 48.9 6.1000000000000005 47.4 C 4.302694279151733 45.98386712419882 3.1788411963428156 43.88117425958858 2.999999999999999 41.6 C 3 41.4 3 41.2 2.9 41 L 2.9 24.7 C 2.9 24.7 7 24.7 7 28.4 L 7 33.1 L 7.6 32.800000000000004 C 7.699999999999999 32.800000000000004 7.699999999999999 32.7 7.699999999999999 32.7 C 7.799999999999999 32.7 7.8999999999999995 32.6 7.8999999999999995 32.6 C 9.175738425289785 31.86263195780165 10.626596125335599 31.48264541731346 12.099999999999998 31.5 L 12.5 31.5 C 14.4 31.6 16 32.1 17.5 33.2 C 19.6 34.800000000000004 20.8 36.800000000000004 21.2 39.2 C 21.5 41.300000000000004 21.2 43.300000000000004 20.2 45 C 18.7 47.5 16.7 49 14 49.5 C 13.2 49.5 12.5 49.6 11.9 49.6 z M 12.1 35.3 C 11.799999999999999 35.3 11.5 35.3 11.2 35.4 C 8.6 35.699999999999996 6.999999999999999 37.8 6.999999999999999 40.4 L 6.999999999999999 40.8 C 6.999999999999999 42.3 7.599999999999999 43.5 8.7 44.4 C 9.6 45.199999999999996 10.899999999999999 45.699999999999996 12.1 45.699999999999996 C 13 45.699999999999996 14 45.4 14.8 44.99999999999999 C 16.7 43.89999999999999 17.5 42.099999999999994 17.2 39.79999999999999 C 16.9 37.59999999999999 15.1 35.29999999999999 12.1 35.29999999999999 z M 69.1 49.6 C 66.69999999999999 49.6 64.39999999999999 48.7 62.599999999999994 46.9 C 60.95631868734549 45.32556877509963 59.988276304006945 43.17436347879177 59.89999999999999 40.9 C 59.79999999999999 38.4 60.599999999999994 36 62.39999999999999 34.199999999999996 C 64.19999999999999 32.4 66.49999999999999 31.299999999999997 69.1 31.299999999999997 C 74.1 31.299999999999997 78.3 35.4 78.3 40.4 C 78.3 42.8 77.39999999999999 45 75.7 46.8 C 74.0959360884646 48.47399276960843 71.91509323177846 49.47503539234961 69.60000000000001 49.599999999999994 L 69.10000000000001 49.599999999999994 z M 69.19999999999999 35.3 C 68.89999999999999 35.3 68.6 35.3 68.19999999999999 35.4 C 65.66098682761108 35.80192708458014 63.8179797188337 38.030679867287674 63.89999999999999 40.6 L 63.89999999999999 41 C 63.99999999999999 43.8 66.19999999999999 45.9 68.99999999999999 45.9 C 69.89999999999999 45.9 70.89999999999999 45.6 71.69999999999999 45.199999999999996 C 73.6 44.099999999999994 74.29999999999998 42.3 73.99999999999999 39.99999999999999 C 73.89999999999999 37.49999999999999 71.99999999999999 35.29999999999999 69.19999999999999 35.29999999999999 z M 40.2 24.7 L 40.2 49.3 L 44.5 49.3 L 44.5 28.4 C 44.4 24.799999999999997 40.2 24.7 40.2 24.7 z M 46.4 24.7 L 46.4 49.3 L 50.699999999999996 49.3 L 50.699999999999996 28.4 C 50.699999999999996 24.5 46.4 24.7 46.4 24.7 z" stroke-linecap="round" />
</g>
		<g transform="matrix(1 0 0 1 9.63 0.25)"  >
<path style="stroke: none; stroke-width: 1; stroke-dasharray: none; stroke-linecap: butt; stroke-dashoffset: 0; stroke-linejoin: miter; stroke-miterlimit: 4; fill: rgb(0,0,0); fill-rule: nonzero; opacity: 1;" vector-effect="non-scaling-stroke"  transform=" translate(-59.13, -29.25)" d="M 52.6 49.3 L 52.6 46.599999999999994 L 52.6 40.199999999999996 C 52.6 38.8 52.7 37.3 53.300000000000004 35.8 C 54.2 33.699999999999996 55.800000000000004 32.5 58.00000000000001 31.799999999999997 C 59.800000000000004 31.299999999999997 61.400000000000006 31.4 61.400000000000006 31.4 L 61.400000000000006 35.3 C 61.400000000000006 35.3 60.400000000000006 35.3 59.400000000000006 35.599999999999994 C 58.00000000000001 35.99999999999999 57.10000000000001 36.89999999999999 56.900000000000006 38.39999999999999 C 56.800000000000004 38.99999999999999 56.7 39.79999999999999 56.7 40.599999999999994 L 56.7 49.3 L 52.6 49.3 z M 79.9 51.7 C 81.7 51.7 82.2 52.6 82.60000000000001 53 C 83.2 53.5 84.00000000000001 53.8 84.7 53.8 C 87 53.8 88.8 51.699999999999996 88.8 49.699999999999996 L 88.8 48.8 C 87.8 49.4 86.7 49.599999999999994 85.6 49.599999999999994 C 81.5 49.599999999999994 78.3 46.199999999999996 78.3 41.99999999999999 L 78.3 31.6 L 82.39999999999999 31.6 L 82.39999999999999 41.8 C 82.39999999999999 43.699999999999996 83.89999999999999 45.4 85.6 45.4 C 87.5 45.4 88.8 43.8 88.8 41.8 L 88.8 35.3 C 88.8 31.599999999999998 92.89999999999999 31.599999999999998 92.89999999999999 31.599999999999998 L 92.89999999999999 49.599999999999994 C 92.89999999999999 53.8 89.8 57.699999999999996 84.69999999999999 57.699999999999996 C 81.6 57.699999999999996 78.79999999999998 55.9 77.6 52.99999999999999 C 77.19999999999999 52.199999999999996 77.1 51.599999999999994 77.1 51.599999999999994 C 77.1 51.599999999999994 78.39999999999999 51.699999999999996 79.89999999999999 51.699999999999996 z M 30.3 45.9 C 28.6 45.9 27.2 45.1 26.3 43.9 L 39.3 39.3 C 38.699999999999996 36.3 37.5 34.4 35.699999999999996 33.099999999999994 C 33.660296623289696 31.68598150319876 31.14001017159087 31.14592012069187 28.699999999999992 31.599999999999994 C 28.099999999999994 31.699999999999996 27.699999999999996 31.799999999999994 27.099999999999994 31.999999999999993 C 23.274965806053505 33.41816311161289 20.890763167657756 37.241108721454346 21.299999999999994 41.3 C 21.489612048700362 43.71287240212227 22.64306250733645 45.94768266572969 24.499999999999993 47.5 C 26.299999999999994 49 28.499999999999993 49.7 30.799999999999994 49.7 C 31.799999999999994 49.7 32.699999999999996 49.5 33.699999999999996 49.1 C 37.4 47.800000000000004 39.099999999999994 45 39.49999999999999 42.4 L 37.099999999999994 42.4 C 35.599999999999994 42.4 34.99999999999999 43.4 34.599999999999994 43.8 C 33.52450555298102 45.071937898565075 31.964373810572592 45.833862702997095 30.299999999999994 45.9 z M 28.6 35.599999999999994 C 28.700000000000003 35.599999999999994 28.700000000000003 35.599999999999994 28.8 35.49999999999999 L 29.1 35.49999999999999 C 29.5 35.39999999999999 29.900000000000002 35.29999999999999 30.400000000000002 35.29999999999999 C 31.3 35.29999999999999 32.2 35.59999999999999 33 35.99999999999999 C 33.4 36.199999999999996 33.7 36.49999999999999 34 36.79999999999999 L 34 37.1 L 34.4 37.5 L 25.2 40.7 L 25.2 40.2 C 25.3 38 26.599999999999998 36.300000000000004 28.599999999999998 35.6 z M 75.6 5.5 C 74.89999999999999 5.5 74.3 6.1 74.3 6.8 C 74.3 7.5 75 8.2 75.8 8 C 76.1 9.1 76.7 10.1 77.6 10.8 L 78 11 L 78.4 10.7 C 79.10000000000001 10.1 79.80000000000001 9 80.10000000000001 7.8999999999999995 L 80.4 7.8999999999999995 C 81.10000000000001 7.8999999999999995 81.7 7.3 81.7 6.6 C 81.7 5.8999999999999995 81 5.3999999999999995 80.3 5.3999999999999995 C 79.5 5.3999999999999995 79 5.999999999999999 79 6.699999999999999 C 79 7.6 78.5 8.799999999999999 77.9 9.6 C 77.30000000000001 8.9 76.9 7.8 76.80000000000001 6.699999999999999 C 76.9 6.1 76.30000000000001 5.499999999999999 75.60000000000001 5.499999999999999 z M 92.1 17.1 C 89.6 10.900000000000002 86 9.100000000000001 84.5 8.500000000000002 C 84.6 8.100000000000001 84.6 7.800000000000002 84.6 7.300000000000002 C 84.6 3.7000000000000015 81.6 0.8000000000000016 78 0.8000000000000016 C 74.5 0.8000000000000016 71.7 3.6000000000000014 71.2 7.200000000000002 C 70.5 15.900000000000002 76.2 20.700000000000003 79 22.900000000000002 C 80.6 24.1 81.4 25.000000000000004 80.5 26.500000000000004 C 79.9 27.300000000000004 79.3 28.500000000000004 78.7 28.700000000000003 C 77.10000000000001 29.000000000000004 76.60000000000001 30.000000000000004 76.60000000000001 30.000000000000004 L 78 30.000000000000004 C 79.8 30.000000000000004 80.3 29.900000000000002 82.1 27.000000000000004 C 83.8 24.100000000000005 81.1 22.500000000000004 80 21.6 C 77.2 19.5 72 15.200000000000001 72.7 7.400000000000002 L 72.7 7.3000000000000025 C 73 4.3000000000000025 75.2 2.1000000000000023 78.10000000000001 2.1000000000000023 C 80.19257075448871 2.0826198255095 82.08842647307313 3.3307985141235186 82.89951109903348 5.259864651542741 C 83.71059572499384 7.188930788961963 83.2762776534783 9.416841639322554 81.80000000000001 10.899999999999999 C 80.9 11.900000000000002 79.60000000000001 12.400000000000002 78.20000000000002 12.400000000000002 C 77.70000000000002 12.400000000000002 77.30000000000001 12.300000000000002 76.90000000000002 12.200000000000003 C 75.50000000000001 11.800000000000002 74.90000000000002 12.800000000000002 74.90000000000002 12.800000000000002 L 74.80000000000003 12.900000000000002 L 74.90000000000002 13.000000000000002 C 75.80000000000003 13.600000000000001 77.10000000000002 13.900000000000002 78.20000000000002 13.900000000000002 C 80.00000000000001 13.900000000000002 81.60000000000002 13.300000000000002 82.80000000000001 12.000000000000002 C 83.4 11.400000000000002 83.9 10.700000000000001 84.20000000000002 10.000000000000002 C 85.40000000000002 10.500000000000002 88.60000000000002 12.100000000000001 90.90000000000002 17.700000000000003 C 91.50000000000001 19.1 92.00000000000001 20.500000000000004 92.50000000000001 21.700000000000003 C 90.70000000000002 21.700000000000003 84.40000000000002 21.500000000000004 81.30000000000001 16.6 C 80.50000000000001 15.3 79.20000000000002 15.600000000000001 79.20000000000002 15.600000000000001 C 82.40000000000002 23.3 91.50000000000001 23.1 93.20000000000002 23.200000000000003 C 94.00000000000001 25.200000000000003 94.70000000000002 26.800000000000004 95.00000000000001 27.700000000000003 C 94.30000000000001 27.700000000000003 92.90000000000002 27.400000000000002 91.30000000000001 26.000000000000004 C 89.91926940243374 24.715340025039637 88.08470883525376 24.031876284325527 86.20000000000002 24.1 L 82.20000000000002 30.400000000000006 C 82.20000000000002 30.400000000000006 84.10000000000002 30.400000000000006 84.90000000000002 29.200000000000006 L 87.10000000000002 25.700000000000006 C 88.20000000000002 25.800000000000008 89.30000000000003 26.300000000000008 90.40000000000002 27.200000000000006 C 92.50000000000001 28.900000000000006 93.80000000000003 29.100000000000005 95.10000000000002 29.100000000000005 C 96.30000000000003 29.200000000000006 97.00000000000003 28.800000000000004 97.00000000000003 28.800000000000004 C 97.00000000000003 28.800000000000004 94.60000000000002 23.200000000000003 92.10000000000002 17.100000000000005 z" stroke-linecap="round" />
</g>
</g>
</g>
</svg>